<svg xmlns="http://www.w3.org/2000/svg" viewBox="0 0 16 16" fill="none">
  <path
    fill-rule="evenodd"
    clip-rule="evenodd"
    d="M2.3 4.95V3.175H13.7V4.95H13.2836C13.2319 4.94177 13.179 4.9375 13.125 4.9375H2.875C2.82104 4.9375 2.76808 4.94177 2.71644 4.95H2.3ZM1.875 6.24226C1.38171 6.18075 1 5.75995 1 5.25V2.875C1 2.32272 1.44772 1.875 2 1.875H14C14.5523 1.875 15 2.32272 15 2.875V5.25C15 5.75995 14.6183 6.18075 14.125 6.24226V13.125C14.125 13.6773 13.6773 14.125 13.125 14.125H2.875C2.32272 14.125 1.875 13.6773 1.875 13.125V6.24226ZM3.175 6.25V12.825H12.825V6.25H3.175ZM4.50625 8.65625C4.50625 8.29727 4.79727 8.00625 5.15625 8.00625H10.8438C11.2027 8.00625 11.4937 8.29727 11.4937 8.65625C11.4937 9.01523 11.2027 9.30625 10.8438 9.30625H5.15625C4.79727 9.30625 4.50625 9.01523 4.50625 8.65625Z"
  />
</svg>
