<svg xmlns="http://www.w3.org/2000/svg" viewBox="0 0 16 16" fill="none">
  <path
    fill-rule="evenodd"
    clip-rule="evenodd"
    d="M11.7096 7.22972C11.4558 6.97588 11.0442 6.97588 10.7904 7.22972L8.65 9.3701L8.65 1.75001C8.65 1.39102 8.35898 1.10001 8 1.10001C7.64101 1.10001 7.35 1.39102 7.35 1.75001L7.35 9.3701L5.20962 7.22972C4.95578 6.97588 4.54422 6.97588 4.29038 7.22972C4.03654 7.48356 4.03654 7.89512 4.29038 8.14896L7.54038 11.399L8 11.8586L8.45962 11.399L11.7096 8.14896C11.9635 7.89512 11.9635 7.48356 11.7096 7.22972ZM2.4 9.75C2.4 9.39102 2.10898 9.1 1.75 9.1C1.39101 9.1 1.1 9.39102 1.1 9.75L1.1 13C1.1 14.0493 1.95066 14.9 3 14.9L13 14.9C14.0493 14.9 14.9 14.0493 14.9 13L14.9 9.75C14.9 9.39101 14.609 9.1 14.25 9.1C13.891 9.1 13.6 9.39101 13.6 9.75L13.6 13C13.6 13.3314 13.3314 13.6 13 13.6L3 13.6C2.66863 13.6 2.4 13.3314 2.4 13L2.4 9.75Z"
  />
</svg>
