<svg xmlns="http://www.w3.org/2000/svg" viewBox="0 0 16 16" fill="none">
  <path
    fill-rule="evenodd"
    clip-rule="evenodd"
    d="M7.35001 1.31479C7.35001 0.955801 7.64102 0.664786 8.00001 0.664786C8.35899 0.664786 8.65001 0.955801 8.65001 1.31479V2.46741C8.65001 5.16399 10.836 7.35 13.5326 7.35H14.6852C15.0442 7.35 15.3352 7.64102 15.3352 8C15.3352 8.35899 15.0442 8.65 14.6852 8.65H13.5326C10.836 8.65 8.65001 10.836 8.65001 13.5326V14.6852C8.65001 15.0442 8.35899 15.3352 8.00001 15.3352C7.64102 15.3352 7.35001 15.0442 7.35001 14.6852V13.5326C7.35001 10.836 5.164 8.65 2.46742 8.65H1.3148C0.95581 8.65 0.664795 8.35899 0.664795 8C0.664795 7.64102 0.95581 7.35 1.3148 7.35H2.46742C5.164 7.35 7.35001 5.16399 7.35001 2.46741V1.31479ZM5.22995 8C6.42632 8.59853 7.40148 9.57369 8.00001 10.7701C8.59854 9.57369 9.5737 8.59853 10.7701 8C9.5737 7.40147 8.59854 6.42631 8.00001 5.22995C7.40148 6.42631 6.42632 7.40147 5.22995 8Z"
  />
</svg>
