<svg xmlns="http://www.w3.org/2000/svg" viewBox="0 0 16 16" fill="none">
  <path
    fill-rule="evenodd"
    clip-rule="evenodd"
    d="M3.5 2.5V13.5H12.5V2.5H3.5ZM3 1C2.44772 1 2 1.44772 2 2V14C2 14.5523 2.44772 15 3 15H13C13.5523 15 14 14.5523 14 14V2C14 1.44772 13.5523 1 13 1H3ZM8 11C8 10.5858 8.33579 10.25 8.75 10.25H10.5C10.9142 10.25 11.25 10.5858 11.25 11C11.25 11.4142 10.9142 11.75 10.5 11.75H8.75C8.33579 11.75 8 11.4142 8 11ZM6 12C6.55228 12 7 11.5523 7 11C7 10.4477 6.55228 10 6 10C5.44772 10 5 10.4477 5 11C5 11.5523 5.44772 12 6 12ZM8 8C8 7.58579 8.33579 7.25 8.75 7.25H10.5C10.9142 7.25 11.25 7.58579 11.25 8C11.25 8.41421 10.9142 8.75 10.5 8.75H8.75C8.33579 8.75 8 8.41421 8 8ZM6 9C6.55228 9 7 8.55228 7 8C7 7.44772 6.55228 7 6 7C5.44772 7 5 7.44772 5 8C5 8.55228 5.44772 9 6 9ZM8 5C8 4.58579 8.33579 4.25 8.75 4.25H10.5C10.9142 4.25 11.25 4.58579 11.25 5C11.25 5.41421 10.9142 5.75 10.5 5.75H8.75C8.33579 5.75 8 5.41421 8 5ZM6 6C6.55228 6 7 5.55228 7 5C7 4.44772 6.55228 4 6 4C5.44772 4 5 4.44772 5 5C5 5.55228 5.44772 6 6 6Z"
  />
</svg>
