<svg xmlns="http://www.w3.org/2000/svg" viewBox="0 0 16 16" fill="none">
  <path
    fill-rule="evenodd"
    clip-rule="evenodd"
    d="M2.92523 2.83983C2.92523 1.79049 3.77589 0.93983 4.82523 0.93983H12.4248C12.7838 0.93983 13.0748 1.23084 13.0748 1.58983V10.8819C13.0748 11.2408 12.7838 11.5319 12.4248 11.5319H7.54381V12.8867H12.4248C12.7838 12.8867 13.0748 13.1777 13.0748 13.5367C13.0748 13.8957 12.7838 14.1867 12.4248 14.1867H7.54381V15.0854H6.24381V14.1867H4.90266C3.81056 14.1867 2.92523 13.3014 2.92523 12.2093V2.83983ZM6.24381 12.8867V11.5319H4.90266C4.52853 11.5319 4.22523 11.8352 4.22523 12.2093C4.22523 12.5834 4.52853 12.8867 4.90266 12.8867H6.24381ZM11.7748 2.23983V10.2319H4.90266C4.6647 10.2319 4.43654 10.2739 4.22523 10.3509V2.83983C4.22523 2.50846 4.49386 2.23983 4.82523 2.23983H11.7748Z"
  />
</svg>
