<svg xmlns="http://www.w3.org/2000/svg" viewBox="0 0 16 16" fill="none">
  <path
    fill-rule="evenodd"
    clip-rule="evenodd"
    d="M13.6901 8.33987C13.6896 8.3487 13.6883 8.35028 13.6881 8.35051L13.6881 8.35054C13.6871 8.3524 13.6809 8.36333 13.6617 8.37911C13.6191 8.41413 13.5345 8.45342 13.4227 8.45342H10.6342C7.91697 8.45342 6.55618 11.7387 8.47756 13.6601C8.48393 13.6665 8.48971 13.6727 8.49496 13.6789C8.3321 13.6929 8.16703 13.7 8 13.7C4.85198 13.7 2.3 11.148 2.3 8C2.3 4.85198 4.85198 2.3 8 2.3C11.148 2.3 13.7 4.85198 13.7 8C13.7 8.11425 13.6967 8.22757 13.6901 8.33987ZM13.4227 9.75342C14.2208 9.75342 14.9412 9.21271 14.9878 8.41592C14.9959 8.27831 15 8.13963 15 8C15 4.13401 11.866 1 8 1C4.13401 1 1 4.13401 1 8C1 11.866 4.13401 15 8 15C8.28243 15 8.56096 14.9833 8.83465 14.9508C9.92325 14.8214 10.172 13.516 9.3968 12.7409C8.29436 11.6384 9.07515 9.75342 10.6342 9.75342H13.4227ZM9.75 5.375C9.75 5.85825 9.35825 6.25 8.875 6.25C8.39175 6.25 8 5.85825 8 5.375C8 4.89175 8.39175 4.5 8.875 4.5C9.35825 4.5 9.75 4.89175 9.75 5.375ZM6.25 7.125C6.73325 7.125 7.125 6.73325 7.125 6.25C7.125 5.76675 6.73325 5.375 6.25 5.375C5.76675 5.375 5.375 5.76675 5.375 6.25C5.375 6.73325 5.76675 7.125 6.25 7.125ZM6.25 8.875C6.25 9.35825 5.85825 9.75 5.375 9.75C4.89175 9.75 4.5 9.35825 4.5 8.875C4.5 8.39175 4.89175 8 5.375 8C5.85825 8 6.25 8.39175 6.25 8.875Z"
  />
</svg>
