<svg xmlns="http://www.w3.org/2000/svg" viewBox="0 0 16 16" fill="none">
  <path
    fill-rule="evenodd"
    clip-rule="evenodd"
    d="M8 13.7C8.20882 13.7 8.74784 13.4969 9.31212 12.3684C9.5814 11.8298 9.80789 11.162 9.96471 10.4H6.03529C6.19211 11.162 6.4186 11.8298 6.68788 12.3684C7.25216 13.4969 7.79118 13.7 8 13.7ZM5.8474 9.1C5.81644 8.74554 5.8 8.37804 5.8 8C5.8 7.62196 5.81644 7.25446 5.8474 6.9H10.1526C10.1836 7.25446 10.2 7.62196 10.2 8C10.2 8.37804 10.1836 8.74554 10.1526 9.1H5.8474ZM11.2889 10.4C11.0914 11.4822 10.7642 12.4396 10.3448 13.1969C11.5896 12.6344 12.5963 11.6377 13.1716 10.4H11.2889ZM13.5939 9.1H11.457C11.4853 8.74165 11.5 8.37425 11.5 8C11.5 7.62575 11.4853 7.25835 11.457 6.9H13.5939C13.6635 7.25592 13.7 7.6237 13.7 8C13.7 8.3763 13.6635 8.74408 13.5939 9.1ZM4.54297 9.1H2.40605C2.33646 8.74408 2.3 8.3763 2.3 8C2.3 7.6237 2.33646 7.25592 2.40605 6.9H4.54297C4.51469 7.25835 4.5 7.62575 4.5 8C4.5 8.37425 4.51469 8.74165 4.54297 9.1ZM2.82839 10.4H4.71113C4.90862 11.4822 5.23585 12.4396 5.65516 13.1969C4.41035 12.6344 3.40375 11.6377 2.82839 10.4ZM6.03529 5.6H9.96471C9.80789 4.83797 9.5814 4.1702 9.31212 3.63163C8.74784 2.50308 8.20882 2.3 8 2.3H7.99971C7.79069 2.30018 7.2519 2.50359 6.68788 3.63163C6.4186 4.1702 6.19211 4.83797 6.03529 5.6ZM11.2889 5.6H13.1716C12.5963 4.36229 11.5896 3.36564 10.3448 2.8031C10.7642 3.56037 11.0914 4.51776 11.2889 5.6ZM5.65516 2.8031C5.23584 3.56037 4.90862 4.51776 4.71113 5.6H2.82839C3.40375 4.36229 4.41035 3.36564 5.65516 2.8031ZM8 1C11.866 1 15 4.13401 15 8C15 11.866 11.866 15 8 15C4.13401 15 1 11.866 1 8C1 4.13401 4.13401 1 8 1Z"
  />
</svg>
