<svg xmlns="http://www.w3.org/2000/svg" viewBox="0 0 16 16" fill="none">
  <path
    fill-rule="evenodd"
    clip-rule="evenodd"
    d="M1.17115 2.40495C0.812164 2.40495 0.521149 2.69597 0.521149 3.05495V4.46782C0.521149 4.82681 0.812164 5.11783 1.17115 5.11783C1.53013 5.11783 1.82115 4.82681 1.82115 4.46782V3.70495H4.5243V12.295H3.9969C3.63791 12.295 3.3469 12.5861 3.3469 12.945C3.3469 13.304 3.63791 13.595 3.9969 13.595H6.35168C6.71067 13.595 7.00168 13.304 7.00168 12.945C7.00168 12.5861 6.71067 12.295 6.35168 12.295H5.8243V3.70495H8.52741V4.46782C8.52741 4.82681 8.81843 5.11783 9.17741 5.11783C9.5364 5.11783 9.82741 4.82681 9.82741 4.46782V3.05495C9.82741 2.69597 9.5364 2.40495 9.17741 2.40495H1.17115ZM8.05648 7.76452C8.05648 7.40554 8.34749 7.11452 8.70648 7.11452H14.8289C15.1879 7.11452 15.4789 7.40554 15.4789 7.76452C15.4789 8.12351 15.1879 8.41452 14.8289 8.41452H8.70648C8.34749 8.41452 8.05648 8.12351 8.05648 7.76452ZM8.05648 11.0612C8.05648 10.7022 8.34749 10.4112 8.70648 10.4112H14.8289C15.1879 10.4112 15.4789 10.7022 15.4789 11.0612C15.4789 11.4202 15.1879 11.7112 14.8289 11.7112H8.70648C8.34749 11.7112 8.05648 11.4202 8.05648 11.0612Z"
  />
</svg>
