<svg width="71" height="32" viewBox="0 0 71 32" fill="none" xmlns="http://www.w3.org/2000/svg">
  <path
    d="M64.083 28.3389V21.3253H65.3227V23.9485H65.3741C65.438 23.8207 65.5282 23.6849 65.6446 23.541C65.7611 23.3949 65.9186 23.2705 66.1172 23.1677C66.3159 23.0627 66.5693 23.0102 66.8775 23.0102C67.2839 23.0102 67.6503 23.1141 67.9768 23.3218C68.3056 23.5273 68.5658 23.8321 68.7576 24.2362C68.9517 24.638 69.0487 25.1312 69.0487 25.7156C69.0487 26.2933 68.9539 26.7841 68.7644 27.1882C68.575 27.5923 68.317 27.9005 67.9905 28.1129C67.664 28.3252 67.2942 28.4313 66.8809 28.4313C66.5796 28.4313 66.3296 28.3811 66.1309 28.2807C65.9323 28.1802 65.7725 28.0592 65.6515 27.9177C65.5328 27.7738 65.4403 27.638 65.3741 27.5101H65.3022V28.3389H64.083ZM65.2988 25.7088C65.2988 26.049 65.3467 26.3469 65.4426 26.6026C65.5408 26.8583 65.6812 27.0581 65.8638 27.2019C66.0487 27.3435 66.2725 27.4142 66.535 27.4142C66.809 27.4142 67.0384 27.3412 67.2234 27.1951C67.4083 27.0467 67.5476 26.8446 67.6412 26.5889C67.7371 26.3309 67.785 26.0376 67.785 25.7088C67.785 25.3823 67.7382 25.0924 67.6446 24.8389C67.551 24.5855 67.4117 24.3869 67.2268 24.2431C67.0419 24.0992 66.8113 24.0273 66.535 24.0273C66.2702 24.0273 66.0453 24.0969 65.8604 24.2362C65.6755 24.3755 65.5351 24.5707 65.4392 24.8218C65.3456 25.073 65.2988 25.3686 65.2988 25.7088Z"
    fill="#030712"
  />
  <path
    d="M60.1555 28.445C59.8221 28.445 59.5219 28.3857 59.2548 28.267C58.99 28.146 58.7799 27.9679 58.6247 27.7327C58.4717 27.4976 58.3952 27.2076 58.3952 26.8629C58.3952 26.5661 58.45 26.3207 58.5596 26.1266C58.6692 25.9325 58.8187 25.7773 59.0082 25.6608C59.1977 25.5444 59.4112 25.4565 59.6486 25.3972C59.8884 25.3355 60.1361 25.291 60.3918 25.2636C60.7 25.2316 60.95 25.2031 61.1418 25.178C61.3335 25.1506 61.4728 25.1095 61.5596 25.0547C61.6486 24.9976 61.6931 24.9097 61.6931 24.791V24.7705C61.6931 24.5125 61.6166 24.3127 61.4637 24.1711C61.3107 24.0296 61.0904 23.9588 60.8027 23.9588C60.4991 23.9588 60.2582 24.025 60.0801 24.1574C59.9043 24.2899 59.7856 24.4463 59.724 24.6266L58.5665 24.4622C58.6578 24.1426 58.8085 23.8755 59.0185 23.6609C59.2285 23.444 59.4854 23.2819 59.789 23.1746C60.0927 23.065 60.4283 23.0102 60.7959 23.0102C61.0493 23.0102 61.3016 23.0399 61.5527 23.0992C61.8038 23.1586 62.0333 23.2568 62.2411 23.3938C62.4488 23.5285 62.6155 23.7123 62.741 23.9451C62.8689 24.178 62.9328 24.4691 62.9328 24.8184V28.3389H61.7411V27.6163H61.7C61.6246 27.7624 61.5185 27.8994 61.3815 28.0272C61.2468 28.1528 61.0767 28.2544 60.8712 28.332C60.668 28.4074 60.4294 28.445 60.1555 28.445ZM60.4774 27.5341C60.7262 27.5341 60.942 27.485 61.1246 27.3868C61.3073 27.2864 61.4477 27.154 61.5459 26.9896C61.6463 26.8252 61.6965 26.646 61.6965 26.4519V25.8321C61.6577 25.864 61.5915 25.8937 61.4979 25.9211C61.4066 25.9485 61.3039 25.9725 61.1897 25.993C61.0755 26.0136 60.9625 26.0318 60.8507 26.0478C60.7388 26.0638 60.6418 26.0775 60.5596 26.0889C60.3746 26.114 60.2091 26.1551 60.063 26.2122C59.9169 26.2693 59.8016 26.3492 59.7171 26.4519C59.6326 26.5524 59.5904 26.6825 59.5904 26.8423C59.5904 27.0706 59.6737 27.243 59.8404 27.3594C60.0071 27.4759 60.2194 27.5341 60.4774 27.5341Z"
    fill="#030712"
  />
  <path d="M53.3859 28.3389V21.3253H54.6564V27.2738H57.7454V28.3389H53.3859Z" fill="#030712" />
  <path
    d="M52.2777 23.0787V24.0376H49.2538V23.0787H52.2777ZM50.0004 21.8185H51.2401V26.7567C51.2401 26.9234 51.2652 27.0512 51.3154 27.1403C51.3679 27.227 51.4364 27.2864 51.5209 27.3184C51.6054 27.3503 51.699 27.3663 51.8017 27.3663C51.8793 27.3663 51.9501 27.3606 52.014 27.3492C52.0802 27.3378 52.1305 27.3275 52.1647 27.3184L52.3736 28.2875C52.3074 28.3103 52.2127 28.3355 52.0894 28.3629C51.9684 28.3903 51.82 28.4062 51.6442 28.4108C51.3337 28.4199 51.054 28.3731 50.8052 28.2704C50.5563 28.1654 50.3588 28.0033 50.2127 27.7841C50.0689 27.5649 49.9981 27.291 50.0004 26.9622V21.8185Z"
    fill="#030712"
  />
  <path
    d="M47.1783 28.3389V23.0787H48.418V28.3389H47.1783ZM47.8016 22.3321C47.6052 22.3321 47.4363 22.2671 47.2947 22.1369C47.1532 22.0045 47.0824 21.8458 47.0824 21.6609C47.0824 21.4737 47.1532 21.315 47.2947 21.1849C47.4363 21.0525 47.6052 20.9863 47.8016 20.9863C48.0002 20.9863 48.1691 21.0525 48.3084 21.1849C48.45 21.315 48.5207 21.4737 48.5207 21.6609C48.5207 21.8458 48.45 22.0045 48.3084 22.1369C48.1691 22.2671 48.0002 22.3321 47.8016 22.3321Z"
    fill="#030712"
  />
  <path
    d="M44.7497 23.565C44.6926 23.3801 44.6138 23.2145 44.5134 23.0684C44.4152 22.92 44.2965 22.7933 44.1572 22.6883C44.0202 22.5833 43.8627 22.5045 43.6846 22.452C43.5065 22.3972 43.3125 22.3698 43.1024 22.3698C42.7257 22.3698 42.3901 22.4646 42.0956 22.654C41.8011 22.8435 41.5693 23.1221 41.4004 23.4897C41.2337 23.8549 41.1504 24.3001 41.1504 24.8252C41.1504 25.3549 41.2337 25.8035 41.4004 26.1711C41.5671 26.5387 41.7988 26.8184 42.0956 27.0101C42.3924 27.1996 42.7371 27.2944 43.1298 27.2944C43.486 27.2944 43.7942 27.2259 44.0545 27.0889C44.317 26.9519 44.5191 26.7579 44.6606 26.5067C44.8022 26.2533 44.8729 25.9565 44.8729 25.6163L45.1606 25.6608H43.2565V24.6677H46.1024V25.5102C46.1024 26.1106 45.9745 26.63 45.7188 27.0684C45.4631 27.5067 45.1115 27.8446 44.664 28.082C44.2166 28.3172 43.7029 28.4348 43.123 28.4348C42.4769 28.4348 41.9095 28.2898 41.4209 27.9998C40.9346 27.7076 40.5545 27.2932 40.2805 26.7567C40.0089 26.2179 39.873 25.5787 39.873 24.8389C39.873 24.2727 39.9529 23.767 40.1127 23.3218C40.2748 22.8766 40.5009 22.4988 40.7908 22.1883C41.0808 21.8755 41.4209 21.6381 41.8113 21.476C42.2017 21.3116 42.6264 21.2294 43.0853 21.2294C43.4734 21.2294 43.8353 21.2865 44.1709 21.4006C44.5065 21.5125 44.8044 21.6723 45.0647 21.8801C45.3273 22.0878 45.543 22.3344 45.712 22.6198C45.8809 22.9052 45.9916 23.2202 46.0441 23.565H44.7497Z"
    fill="#030712"
  />
  <g clip-path="url(#clip0_1613_1496)">
    <path
      d="M40.3147 19.5577V12.9806C40.1565 13.2324 39.9086 13.6424 39.6812 13.8491C39.27 14.2232 38.7305 14.5502 38.1008 14.5502V13.0743C38.209 13.0743 38.4075 13.0125 38.6881 12.7573C38.9595 12.5105 39.2377 12.1442 39.4905 11.7047C40.0084 10.8046 40.3147 9.78754 40.3147 9.22634H38.7333V7.75043H40.3147V5.11487H41.7906V7.75043H43.3719V9.22634H41.7906C41.7906 10.1465 42.1751 10.9241 42.6788 11.477C43.2128 12.0632 43.7678 12.2836 44.0045 12.2836V13.7595C43.2658 13.7595 42.4428 13.3155 41.7906 12.6806V19.5577H40.3147Z"
      fill="#030712"
    />
    <path
      fill-rule="evenodd"
      clip-rule="evenodd"
      d="M43.3719 7.22332H44.8478V9.9643C44.8478 11.3879 44.636 13.5328 44.1406 15.2998C43.8917 16.1874 43.5855 16.927 43.2352 17.4286C42.8827 17.9332 42.5735 18.0818 42.3177 18.0818V19.5577C43.261 19.5577 43.96 18.9684 44.4451 18.2738C44.9324 17.5762 45.2933 16.6554 45.5617 15.6982C45.7811 14.9157 45.9481 14.0735 46.0691 13.2468C46.3949 13.9703 46.7748 14.6837 47.1947 15.3515C47.4134 15.6993 47.6454 16.0388 47.8895 16.3644C47.4729 16.7823 47.0499 17.1411 46.6453 17.4224C45.9698 17.8922 45.4378 18.0818 45.1114 18.0818V19.5577C45.8919 19.5577 46.7304 19.161 47.488 18.6341C47.9417 18.3186 48.4004 17.9326 48.845 17.4955C49.1133 17.7748 49.3917 18.0339 49.6791 18.2674C50.6131 19.0265 51.6955 19.5577 52.8599 19.5577V18.0818C52.1532 18.0818 51.3906 17.7565 50.6099 17.122C50.3488 16.9098 50.0916 16.6677 49.8407 16.4007C51.2199 14.7096 52.3855 12.4731 52.3855 10.386V10.1751C52.3855 9.88403 52.1495 9.64803 51.8584 9.64803H49.8328L51.2415 6.4892C51.397 6.14056 51.1418 5.7474 50.7601 5.7474H43.3719V7.22332ZM48.8874 15.2286C49.882 13.9472 50.6358 12.4673 50.8488 11.1239H48.3709C47.9891 11.1239 47.734 10.7308 47.8895 10.3821L49.2981 7.22332H46.3237V8.48838C46.3237 10.0414 47.1372 12.4876 48.4441 14.5658C48.5874 14.7937 48.7354 15.0151 48.8874 15.2286Z"
      fill="#030712"
    />
  </g>
  <path
    d="M56.1702 9.79473C56.2918 10.2943 56.3931 10.8512 56.4707 11.4745C56.4586 11.5549 56.4064 11.7176 56.2516 11.9588C56.0821 12.223 55.8344 12.5114 55.5444 12.7802C55.2549 13.0486 54.9432 13.2791 54.6578 13.4382C54.3546 13.6071 54.1549 13.6541 54.0703 13.6541V15.13C54.526 15.13 54.9891 14.9431 55.3762 14.7274C55.7811 14.5018 56.1871 14.197 56.5479 13.8625C56.5799 13.8328 56.6118 13.8027 56.6434 13.7722C56.6746 14.4682 56.6868 15.0679 56.6649 15.5865C56.6347 16.3029 56.5408 16.7994 56.3849 17.1476C56.242 17.4666 56.0419 17.6748 55.727 17.8209C55.3831 17.9804 54.8649 18.0818 54.0703 18.0818V19.5577C54.9625 19.5577 55.7258 19.4484 56.348 19.1598C56.9992 18.8578 57.4497 18.3808 57.7318 17.751C58.0009 17.1504 58.1063 16.4346 58.1395 15.6487C58.1729 14.8572 58.1344 13.9283 58.0752 12.8747C57.9799 11.1809 57.7451 9.80734 57.3908 8.6768C58.1289 7.88017 58.7929 6.92231 59.1363 6.00653L57.7544 5.4883C57.5596 6.00752 57.2044 6.58861 56.7656 7.1411C56.3314 6.30515 55.8037 5.64339 55.1982 5.09502L54.2075 6.18897C54.7639 6.69291 55.2713 7.34729 55.6776 8.29067C55.3767 8.556 55.0806 8.77667 54.8092 8.93865C54.4365 9.16116 54.1882 9.22635 54.0703 9.22635V10.7023C54.5849 10.7023 55.1108 10.4775 55.5658 10.2059C55.7664 10.0862 55.9689 9.94773 56.1702 9.79473Z"
    fill="#030712"
  />
  <path
    d="M63.4627 5.6972C65.232 5.53019 67.1192 5.34972 67.6358 5.29191L67.7999 6.75866C67.5574 6.78581 67.0308 6.8383 66.363 6.90311C66.4014 7.98029 66.549 10.5577 66.9378 13.0159C67.167 14.4654 67.4731 15.8254 67.8692 16.8049C68.0682 17.297 68.2714 17.6454 68.4632 17.8589C68.6491 18.0658 68.7711 18.0824 68.8294 18.0819V19.5578C68.2091 19.5632 67.7259 19.2467 67.3653 18.8453C67.0105 18.4504 66.7299 17.9244 66.5009 17.3582C66.041 16.2209 65.7144 14.7285 65.48 13.2465C65.091 10.7871 64.9364 8.2245 64.8913 7.04435C64.524 7.07931 64.1467 7.11507 63.7737 7.15031C63.8059 11.8088 63.7126 14.165 62.8404 17.2522L64.0889 16.8304C63.8387 16.2007 63.5915 15.5622 63.41 15.0564L64.7992 14.558C65.0678 15.3066 65.4938 16.3775 65.8563 17.2696C66.0368 17.7139 66.2003 18.1107 66.3187 18.3964C66.3778 18.5392 66.4257 18.6542 66.4587 18.7335C66.4753 18.7731 66.4881 18.8037 66.4967 18.8244L66.5098 18.8556L66.5098 18.8556C66.5098 18.8556 66.5098 18.8556 65.8292 19.141C65.1487 19.4263 65.1487 19.4263 65.1487 19.4263L65.1351 19.3938C65.1262 19.3727 65.1132 19.3416 65.0965 19.3015C65.0631 19.2214 65.0148 19.1053 64.9551 18.9613C64.8704 18.7568 64.7628 18.4959 64.6423 18.2014L61.5472 19.2469C61.1354 19.3861 60.7416 18.9949 60.878 18.5822L61.0106 18.1811C62.195 14.5965 62.332 12.4829 62.2986 7.28918C61.9075 7.32588 61.5472 7.35961 61.2396 7.38836C61.1083 7.40064 60.9865 7.41202 60.8761 7.42233C60.8898 10.2377 60.8298 13.0187 60.5388 15.1583C60.3827 16.3066 60.1526 17.3321 59.7978 18.0908C59.4534 18.8276 58.8714 19.5444 57.9263 19.5526L57.9134 18.0767C57.983 18.0761 58.1917 18.0414 58.4608 17.4657C58.7197 16.912 58.9262 16.064 59.0764 14.9594C59.3748 12.7651 59.4221 9.80164 59.3956 6.75683L59.3939 6.563C59.3915 6.28903 59.5994 6.05892 59.8722 6.03352C61.0691 5.9221 62.266 5.81016 63.4627 5.6972Z"
    fill="#030712"
  />
  <path
    d="M30.9579 12.7216L32.6825 18.0385C32.8391 18.5212 32.6699 19.0541 32.2565 19.3551L17.3135 30.222L30.9579 12.7216Z"
    fill="#FCA326"
  />
  <path
    d="M3.67726 12.7216L1.94648 18.0385C1.78986 18.5212 1.959 19.0541 2.37239 19.3551L17.3135 30.2219L3.67726 12.7216Z"
    fill="#FCA326"
  />
  <path d="M17.3135 30.222L22.9971 12.7216H30.9579L17.3135 30.222Z" fill="#FC6D26" />
  <path d="M17.3135 30.222L3.67729 12.7216H11.6381L17.3135 30.222Z" fill="#FC6D26" />
  <path
    d="M30.9579 12.7216H22.9971L26.4169 2.182C26.5922 1.64278 27.3564 1.64278 27.5381 2.182L30.9579 12.7216Z"
    fill="#E24329"
  />
  <path
    d="M3.67729 12.7216H11.6381L8.212 2.182C8.03664 1.64278 7.27245 1.64278 7.09079 2.182L3.67729 12.7216Z"
    fill="#E24329"
  />
  <path d="M17.3135 30.222L22.9971 12.7216H11.6381L17.3135 30.222Z" fill="#E24329" />
  <defs>
    <clipPath id="clip0_1613_1496">
      <rect width="14.7591" height="14.7591" fill="white" transform="translate(38.1008 4.79863)" />
    </clipPath>
  </defs>
</svg>
