<svg xmlns="http://www.w3.org/2000/svg" viewBox="0 0 16 16" fill="none">
  <path
    fill-rule="evenodd"
    clip-rule="evenodd"
    d="M13.8095 6.99801L13.8096 6.998L13.7916 6.95016L12.6022 3.84749L11.9403 5.87375L11.6475 6.7701H10.7046H5.29592H4.35296L4.06017 5.87375L3.39855 3.84821L2.20817 6.95531L2.20476 6.9642L2.20123 6.97304L2.18472 7.01429C2.00361 7.4929 1.982 8.01731 2.12325 8.50932C2.26518 9.00365 2.56382 9.4385 2.97422 9.74844C2.97462 9.74873 2.97501 9.74903 2.9754 9.74933L2.97998 9.75275L2.98915 9.75963L2.99821 9.76667L3.00582 9.7726L6.00649 12.0214L6.01059 12.0245L6.01058 12.0245L7.5039 13.1529L7.50427 13.1532L7.99697 13.5258L8.48968 13.1532L8.49004 13.1529L9.98336 12.0245L9.98811 12.0209L9.98812 12.021L13.01 9.75924L13.0166 9.7541L13.0243 9.74828C13.4353 9.4384 13.7344 9.00333 13.8766 8.50864C14.0187 8.01396 13.9962 7.48647 13.8125 7.00568L13.8095 6.99801ZM13.7985 10.7928L10.7671 13.0617L9.27377 14.1901L8.36657 14.8761C8.26013 14.9565 8.13037 15 7.99697 15C7.86357 15 7.73382 14.9565 7.62737 14.8761L6.72018 14.1901L5.22685 13.0617L2.21687 10.8059L2.20007 10.7928L2.19261 10.7872C1.55649 10.3075 1.0936 9.63387 0.873732 8.86805C0.653866 8.10223 0.688944 7.28569 0.973678 6.54155L0.994212 6.49022L2.75787 1.88678L2.76308 1.87318L2.80725 1.75787L2.82845 1.70256L2.97193 1.32803C3.01198 1.22668 3.08324 1.14072 3.1754 1.08256C3.24421 1.03875 3.32231 1.01161 3.40347 1.00333C3.48462 0.995047 3.56659 1.00584 3.64284 1.03485C3.71908 1.06386 3.7875 1.11029 3.84262 1.17043C3.89774 1.23056 3.93805 1.30275 3.96033 1.38123L4.08185 1.75325L4.08687 1.76863L4.13217 1.90732L4.13676 1.92136L5.29592 5.4701H10.7046L11.8637 1.92132L11.8683 1.90732L11.9136 1.76863L11.9185 1.75357L12.0401 1.38123C12.0623 1.30263 12.1025 1.23031 12.1576 1.17006C12.2127 1.10981 12.2811 1.0633 12.3574 1.03426C12.4337 1.00523 12.5158 0.994473 12.597 1.00286C12.6782 1.01125 12.7563 1.03855 12.8251 1.08256C12.9172 1.14072 12.9885 1.22668 13.0285 1.32803L13.1709 1.69929L13.1933 1.75791L13.2374 1.87275L13.2427 1.88658L15.0072 6.48928L15.0268 6.54155C15.3112 7.28567 15.346 8.10208 15.126 8.86771C14.906 9.63334 14.443 10.3067 13.8069 10.7863L13.7985 10.7928Z"
  />
</svg>
